<?xml version="1.0" encoding="UTF-8"?>
<svg id="Layer_2" data-name="Layer 2" xmlns="http://www.w3.org/2000/svg" viewBox="0 0 2011.07 603.81">
  <defs>
    <style>
      .cls-1, .cls-2 {
        fill: #4186e0;
      }

      .cls-1, .cls-3 {
        stroke-width: 0px;
      }

      .cls-2 {
        stroke: #4186e0;
      }

      .cls-2, .cls-4 {
        stroke-miterlimit: 10;
        stroke-width: 40.64px;
      }

      .cls-4 {
        stroke: #2a4cdf;
      }

      .cls-4, .cls-3 {
        fill: #2a4cdf;
      }
    </style>
  </defs>
  <g id="Layer_1-2" data-name="Layer 1">
    <g>
      <path class="cls-2" d="M465.15,253.43c151.49-.7,151.39-230.97,0-231.7-151.48.7-151.38,230.97,0,231.7Z"/>
      <path class="cls-4" d="M546.85,385.13c-138.36-118.59-181.82,109.9-318.7,7.7-50.71-45.83-58.98-124.03-8.9-174C324.68,109.69,165.41-51.01,55.45,55.03c-121.55,139.32,121.17,187.47,0,327.6-26.8,26.8-37.8,63.8-32.5,98.8,3.3,24.4,14.2,48.4,32.9,67.1,139.61,121.09,187.78-121.02,327.6,0,109.06,105.38,269.23-53.62,163.4-163.4Z"/>
      <path class="cls-3" d="M665.15,228.63V7.63h57.4c22.8,41.25,47.2,83.95,70,125.2V7.63h56v221h-57.4c-22.8-41.25-47.2-83.95-70-125.2v125.2h-56Z"/>
      <path class="cls-3" d="M978.85,233.93c-84.69,2.04-129.89-89.07-101.7-162.5,32.59-91.86,170.7-91.84,203.4,0,28.22,73.5-17.06,164.4-101.7,162.5ZM978.85,181.13c47.4,1.06,61.7-61.02,45.1-96.7-15.89-39.5-74.27-40.18-90.2-.4-16.51,35.66-2.27,97.85,45.1,97.1Z"/>
      <path class="cls-3" d="M1108.95,228.63V7.63h81.2c12.49,43.6,24.89,90.45,37,134.2,12.2-43.65,24.4-90.5,36.6-134.2h80c.6,72.79,1,148.25,1.6,221h-55.2V79.03c-12.8,49.19-27,100.6-39.8,149.6h-49.2c-13-48.6-26-98.6-39-147.2v147.2h-53.2Z"/>
      <path class="cls-3" d="M1367.05,228.63c22.8-72.79,45.45-148.25,68.2-221h78c22.8,72.79,45.45,148.25,68.2,221h-57.4c-4.05-13.7-8.15-28.3-12.2-42.2h-74.8c-4.05,13.7-8.15,28.3-12.2,42.2h-57.8ZM1450.75,138.43h45.6c-7.15-25.2-15.65-52-22.8-77.2-7.55,25.51-15.25,51.3-22.8,77.2Z"/>
      <path class="cls-3" d="M1604.75,228.63V7.63c40.1,2.05,85.19-6.13,123.1,8.1,41.34,16.88,67.29,57.31,66.3,102.1.63,44.69-25.28,85.97-66.3,102.9-13.4,5.7-28,8.1-44.3,8.1-25.93.1-52.62-.2-78.8-.2ZM1683.65,58.73h-21.6v118.6c16.76-.2,36.25,2.06,50.1-7.7,43.89-28.14,28.53-112.36-28.5-110.9Z"/>
      <g>
        <path class="cls-1" d="M666.37,589.34v-293.08h106.89c22.12,0,41.38,4.24,57.75,12.71,16.38,8.48,29.16,20.33,38.36,35.56,9.19,15.23,13.79,33.05,13.79,53.44s-4.53,37.79-13.58,53.01c-9.05,15.23-21.41,27.01-37.07,35.34-15.66,8.34-33.4,12.5-53.23,12.5h-37.5v90.51h-75.43ZM773.26,363.93h-31.46v69.39h35.77c8.9,0,16.16-3.3,21.77-9.91,5.6-6.61,8.4-14.8,8.4-24.57s-3.02-18.38-9.05-25c-6.03-6.61-14.51-9.91-25.43-9.91Z"/>
        <path class="cls-1" d="M901.69,589.34v-293.08h75.43v224.55h91.8v68.53h-167.23Z"/>
        <path class="cls-1" d="M1323.63,478.15c0,18.1-3.09,34.41-9.27,48.92-6.18,14.51-14.8,26.94-25.86,37.28-11.06,10.34-23.99,18.25-38.79,23.71-14.8,5.46-30.82,8.19-48.06,8.19s-33.62-2.73-48.27-8.19c-14.65-5.46-27.37-13.29-38.14-23.49-10.78-10.2-19.18-22.48-25.21-36.85-6.03-14.36-9.05-30.6-9.05-48.7v-182.74h75.42v178.43c0,15.52,4.31,28.01,12.93,37.5,8.62,9.48,19.68,14.22,33.19,14.22s24.49-4.74,32.97-14.22c8.47-9.48,12.71-21.98,12.71-37.5v-178.43h75.43v181.88Z"/>
        <path class="cls-1" d="M1598.61,573.83c-29.89,12.07-57.69,19.03-83.4,20.9-25.72,1.87-48.92-.58-69.61-7.33-20.69-6.75-38.36-17.02-53.01-30.82-14.65-13.79-25.86-30.17-33.62-49.13s-11.64-39.65-11.64-62.06,3.59-42.59,10.77-61.42c7.18-18.82,17.74-35.13,31.68-48.92,13.93-13.79,30.82-24.57,50.64-32.33,19.83-7.76,42.38-11.56,67.67-11.42,25.28.15,53.01,4.82,83.18,14.01v72.84c-23.85-9.48-45.9-14.94-66.16-16.38-20.26-1.43-37.93.72-53.01,6.46-15.08,5.75-26.87,14.87-35.34,27.37-8.48,12.5-12.71,28.09-12.71,46.76,0,16.38,3.08,30.89,9.27,43.53,6.17,12.65,14.87,22.56,26.08,29.74,11.21,7.19,23.99,10.78,38.36,10.78,4.88,0,9.76-.22,14.65-.65,4.88-.43,9.62-1.22,14.22-2.37v-45.69h-48.27v-64.22h120.25v160.33Z"/>
        <path class="cls-1" d="M1642.13,589.34v-293.08h75.42v293.08h-75.42Z"/>
        <path class="cls-1" d="M1768.41,589.34v-293.08h75.86c15.23,27.3,30.67,54.89,46.33,82.75,15.66,27.87,31.1,55.46,46.33,82.75v-165.5h74.13v293.08h-75.86c-15.23-27.29-30.67-54.88-46.33-82.75-15.66-27.87-31.11-55.45-46.33-82.75v165.5h-74.13Z"/>
      </g>
    </g>
  </g>
</svg>